<svg width="25" height="24" viewBox="0 0 25 24" fill="none" xmlns="http://www.w3.org/2000/svg">
<path d="M12.98 24C19.6074 24 24.98 18.6274 24.98 12C24.98 5.37258 19.6074 0 12.98 0C6.35256 0 0.97998 5.37258 0.97998 12C0.97998 18.6274 6.35256 24 12.98 24Z" fill="#FFDD67"/>
<path d="M6.98008 15.6C9.41013 15.6 11.3801 13.6301 11.3801 11.2C11.3801 8.77 9.41013 6.80005 6.98008 6.80005C4.55003 6.80005 2.58008 8.77 2.58008 11.2C2.58008 13.6301 4.55003 15.6 6.98008 15.6Z" fill="white"/>
<path d="M18.9801 15.6C21.4101 15.6 23.3801 13.6301 23.3801 11.2C23.3801 8.77 21.4101 6.80005 18.9801 6.80005C16.55 6.80005 14.5801 8.77 14.5801 11.2C14.5801 13.6301 16.55 15.6 18.9801 15.6Z" fill="white"/>
<path d="M14.5796 9.99999C13.8596 9.47999 12.0996 9.47999 11.3796 9.99999C10.9396 9.59999 11.0196 9.15999 10.5796 8.75999C11.8196 7.83999 13.9396 7.67999 15.3796 8.75999C14.9396 9.15999 15.0196 9.59999 14.5796 9.99999Z" fill="#494949"/>
<path d="M18.9798 6C16.0998 6 13.7798 8.32 13.7798 11.2C13.7798 14.08 16.0998 16.4 18.9798 16.4C21.8598 16.4 24.1798 14.08 24.1798 11.2C24.1798 8.32 21.8598 6 18.9798 6ZM18.9798 15.2C16.7798 15.2 14.9798 13.4 14.9798 11.2C14.9798 9 16.7798 7.2 18.9798 7.2C21.1798 7.2 22.9798 9 22.9798 11.2C22.9798 13.4 21.1798 15.2 18.9798 15.2ZM6.97979 6C4.09979 6 1.77979 8.32 1.77979 11.2C1.77979 14.08 4.09979 16.4 6.97979 16.4C9.85979 16.4 12.1798 14.08 12.1798 11.2C12.1798 8.32 9.85979 6 6.97979 6ZM6.97979 15.2C4.77979 15.2 2.97979 13.4 2.97979 11.2C2.97979 9 4.77979 7.2 6.97979 7.2C9.17979 7.2 10.9798 9 10.9798 11.2C10.9798 13.4 9.17979 15.2 6.97979 15.2Z" fill="#494949"/>
<path d="M8.18008 13.3999C9.06373 13.3999 9.78008 12.5045 9.78008 11.3999C9.78008 10.2953 9.06373 9.3999 8.18008 9.3999C7.29642 9.3999 6.58008 10.2953 6.58008 11.3999C6.58008 12.5045 7.29642 13.3999 8.18008 13.3999Z" fill="#664E27"/>
<path d="M17.7802 13.3999C18.6638 13.3999 19.3802 12.5045 19.3802 11.3999C19.3802 10.2953 18.6638 9.3999 17.7802 9.3999C16.8965 9.3999 16.1802 10.2953 16.1802 11.3999C16.1802 12.5045 16.8965 13.3999 17.7802 13.3999Z" fill="#664E27"/>
<path d="M10.8599 19.7197C13.1799 20.3197 15.6599 19.8797 17.6199 18.5197C18.0999 18.1597 17.1799 16.9197 16.6999 17.2397C15.4199 18.1597 13.3399 18.7597 11.2199 18.1997C10.6999 18.0797 10.2599 19.5597 10.8599 19.7197Z" fill="#664E27"/>
<path d="M21.46 5.47996C20.18 4.39996 18.46 3.91996 16.78 4.23996C16.54 4.27996 16.34 3.43996 16.62 3.35996C18.54 2.99996 20.54 3.55996 22.02 4.79996C22.26 4.99996 21.62 5.63996 21.46 5.47996ZM9.17996 4.15996C7.49996 3.87996 5.77996 4.31996 4.49996 5.39996C4.33996 5.55996 3.69996 4.91996 3.93996 4.71996C5.41996 3.43996 7.41996 2.91996 9.33996 3.27996C9.61996 3.35996 9.41996 4.19996 9.17996 4.15996Z" fill="#917524"/>
</svg>
