<svg width="34" height="34" viewBox="0 0 34 34" fill="none" xmlns="http://www.w3.org/2000/svg">
<rect width="34" height="34" rx="17" fill="white"/>
<mask id="mask0_1823_16573" style="mask-type:alpha" maskUnits="userSpaceOnUse" x="5" y="5" width="24" height="24">
<rect x="5" y="5" width="24" height="24" fill="#D9D9D9"/>
</mask>
<g mask="url(#mask0_1823_16573)">
<path d="M17 27C15.6167 27 14.3167 26.7375 13.1 26.2125C11.8833 25.6875 10.825 24.975 9.925 24.075C9.025 23.175 8.3125 22.1167 7.7875 20.9C7.2625 19.6833 7 18.3833 7 17C7 15.6167 7.2625 14.3167 7.7875 13.1C8.3125 11.8833 9.025 10.825 9.925 9.925C10.825 9.025 11.8833 8.3125 13.1 7.7875C14.3167 7.2625 15.6167 7 17 7C17.75 7 18.4792 7.07917 19.1875 7.2375C19.8958 7.39583 20.5667 7.625 21.2 7.925C21.1333 8.09167 21.0833 8.26667 21.05 8.45C21.0167 8.63333 21 8.81667 21 9C21 9.23333 21.025 9.45417 21.075 9.6625C21.125 9.87083 21.1917 10.0667 21.275 10.25C20.6583 9.86667 19.9917 9.5625 19.275 9.3375C18.5583 9.1125 17.8 9 17 9C14.7833 9 12.8958 9.77917 11.3375 11.3375C9.77917 12.8958 9 14.7833 9 17C9 19.2167 9.77917 21.1042 11.3375 22.6625C12.8958 24.2208 14.7833 25 17 25C19.2167 25 21.1042 24.2208 22.6625 22.6625C24.2208 21.1042 25 19.2167 25 17C25 16.3333 24.9208 15.6917 24.7625 15.075C24.6042 14.4583 24.3833 13.875 24.1 13.325C24.3667 13.5417 24.6583 13.7083 24.975 13.825C25.2917 13.9417 25.6333 14 26 14C26.0833 14 26.1708 13.9958 26.2625 13.9875C26.3542 13.9792 26.4417 13.9667 26.525 13.95C26.675 14.4333 26.7917 14.9292 26.875 15.4375C26.9583 15.9458 27 16.4667 27 17C27 18.3833 26.7375 19.6833 26.2125 20.9C25.6875 22.1167 24.975 23.175 24.075 24.075C23.175 24.975 22.1167 25.6875 20.9 26.2125C19.6833 26.7375 18.3833 27 17 27ZM20.5 16C20.9333 16 21.2917 15.8583 21.575 15.575C21.8583 15.2917 22 14.9333 22 14.5C22 14.0667 21.8583 13.7083 21.575 13.425C21.2917 13.1417 20.9333 13 20.5 13C20.0667 13 19.7083 13.1417 19.425 13.425C19.1417 13.7083 19 14.0667 19 14.5C19 14.9333 19.1417 15.2917 19.425 15.575C19.7083 15.8583 20.0667 16 20.5 16ZM13.5 16C13.9333 16 14.2917 15.8583 14.575 15.575C14.8583 15.2917 15 14.9333 15 14.5C15 14.0667 14.8583 13.7083 14.575 13.425C14.2917 13.1417 13.9333 13 13.5 13C13.0667 13 12.7083 13.1417 12.425 13.425C12.1417 13.7083 12 14.0667 12 14.5C12 14.9333 12.1417 15.2917 12.425 15.575C12.7083 15.8583 13.0667 16 13.5 16ZM17 22.5C18.1833 22.5 19.2292 22.175 20.1375 21.525C21.0458 20.875 21.7 20.0333 22.1 19H11.9C12.3 20.0333 12.9542 20.875 13.8625 21.525C14.7708 22.175 15.8167 22.5 17 22.5ZM25 10H24C23.7167 10 23.4792 9.90417 23.2875 9.7125C23.0958 9.52083 23 9.28333 23 9C23 8.71667 23.0958 8.47917 23.2875 8.2875C23.4792 8.09583 23.7167 8 24 8H25V7C25 6.71667 25.0958 6.47917 25.2875 6.2875C25.4792 6.09583 25.7167 6 26 6C26.2833 6 26.5208 6.09583 26.7125 6.2875C26.9042 6.47917 27 6.71667 27 7V8H28C28.2833 8 28.5208 8.09583 28.7125 8.2875C28.9042 8.47917 29 8.71667 29 9C29 9.28333 28.9042 9.52083 28.7125 9.7125C28.5208 9.90417 28.2833 10 28 10H27V11C27 11.2833 26.9042 11.5208 26.7125 11.7125C26.5208 11.9042 26.2833 12 26 12C25.7167 12 25.4792 11.9042 25.2875 11.7125C25.0958 11.5208 25 11.2833 25 11V10Z" fill="black"/>
</g>
</svg>
